<svg width="254" height="51" viewBox="0 0 254 51" fill="none" xmlns="http://www.w3.org/2000/svg">
<g clip-path="url(#clip0_60_682)">
<path d="M56.7998 37.8V17.6H64.9998C68.0998 17.6 70.5998 18.5 72.1998 20.2C73.8998 21.9 74.7998 24.4 74.7998 27.7C74.7998 31 73.8998 33.4 72.1998 35.2C70.4998 36.9 68.0998 37.8 64.9998 37.8H56.7998ZM61.1998 34.2H64.3998C68.2998 34.2 70.2998 32.1 70.2998 27.8C70.2998 25.7 69.7998 24.2 68.7998 23.1C67.7998 22 66.3998 21.4 64.3998 21.4H61.1998V34.2Z" fill="white"/>
<path d="M78.2002 37.8V17.6H86.4002C89.5002 17.6 92.0002 18.5 93.6002 20.2C95.3002 21.9 96.2002 24.4 96.2002 27.7C96.2002 31 95.3002 33.4 93.6002 35.2C91.9002 36.9 89.5002 37.8 86.4002 37.8H78.2002ZM82.6002 34.2H85.8002C89.7002 34.2 91.7002 32.1 91.7002 27.8C91.7002 25.7 91.2002 24.2 90.2002 23.1C89.2002 22 87.8002 21.4 85.8002 21.4H82.6002V34.2Z" fill="white"/>
<path d="M108.6 17.2C111.6 17.2 113.9 18.2 115.8 20.2C117.6 22.1 118.6 24.7 118.6 27.9C118.6 31.1 117.7 33.6 115.8 35.6C114 37.5 111.6 38.5 108.6 38.5C105.6 38.5 103.2 37.5 101.4 35.6C99.6001 33.7 98.6001 31.1 98.6001 27.9C98.6001 24.7 99.5001 22.1 101.3 20.2C103.1 18.1 105.6 17.2 108.6 17.2ZM108.5 20.8C106.8 20.8 105.5 21.4 104.5 22.7C103.5 23.9 103 25.6 103 27.7C103 29.9 103.5 31.6 104.5 32.8C105.5 34 106.8 34.7 108.6 34.7C110.3 34.7 111.6 34.1 112.6 32.8C113.6 31.6 114 29.8 114 27.7C114 25.6 113.5 23.9 112.5 22.7C111.6 21.4 110.2 20.8 108.5 20.8Z" fill="white"/>
<path d="M136.8 23.7H132.6C132.4 21.7 131.2 20.7 128.8 20.7C127.8 20.7 127 20.9 126.4 21.3C125.8 21.7 125.5 22.3 125.5 23C125.5 23.2 125.5 23.5 125.6 23.7C125.7 23.9 125.8 24.1 126 24.2C126.2 24.4 126.4 24.5 126.6 24.6C126.8 24.7 127.1 24.8 127.5 24.9C127.9 25 128.3 25.1 128.6 25.2C128.9 25.3 129.4 25.4 130 25.6C130.6 25.8 131.1 25.9 131.6 26C133.6 26.6 135.1 27.3 136 28.1C137 29 137.5 30.2 137.5 31.8C137.5 33 137.3 34 136.8 34.8C136.3 35.7 135.7 36.3 134.9 36.8C134.1 37.3 133.2 37.7 132.3 37.9C131.4 38.1 130.3 38.3 129.3 38.3C126.6 38.3 124.4 37.7 122.9 36.4C121.4 35.1 120.6 33.4 120.6 31.1H125C125.1 33.6 126.6 34.9 129.6 34.9C130.8 34.9 131.7 34.7 132.3 34.2C133 33.7 133.3 33 133.3 32.2C133.3 31.5 133 31 132.4 30.7C131.8 30.4 130.5 29.9 128.5 29.4C128.2 29.3 127.9 29.3 127.8 29.2C127.1 29 126.6 28.9 126.4 28.8C126.1 28.7 125.7 28.6 125.1 28.3C124.5 28.1 124.1 27.9 123.9 27.7C123.6 27.5 123.3 27.3 122.9 27C122.5 26.7 122.2 26.4 122.1 26.1C121.9 25.8 121.8 25.4 121.6 24.9C121.5 24.4 121.4 23.9 121.4 23.3C121.4 21.5 122.1 20 123.5 18.9C124.9 17.8 126.8 17.3 129.1 17.3C131.4 17.3 133.2 17.8 134.7 18.9C136 19.9 136.7 21.5 136.8 23.7Z" fill="white"/>
<path d="M148.6 28.3V31.9H140.1V28.3H148.6Z" fill="white"/>
<path d="M170.4 26.9V37.8H167.6L167.2 35.5C165.7 37.4 163.7 38.3 161.1 38.3C158.3 38.3 156 37.3 154.2 35.4C152.4 33.5 151.6 30.9 151.6 27.8C151.6 24.7 152.5 22.1 154.4 20.2C156.3 18.2 158.6 17.2 161.6 17.2C163.9 17.2 165.9 17.9 167.4 19.2C169 20.5 169.9 22.2 170.2 24.3H165.9C165.7 23.2 165.2 22.4 164.4 21.8C163.6 21.2 162.6 20.9 161.5 20.9C159.8 20.9 158.5 21.5 157.5 22.7C156.5 23.9 156.1 25.6 156.1 27.7C156.1 29.9 156.6 31.6 157.5 32.8C158.5 34 159.9 34.6 161.6 34.6C163 34.6 164.1 34.2 165 33.4C165.9 32.5 166.4 31.4 166.4 30.1H161.9V26.8H170.4V26.9Z" fill="white"/>
<path d="M191.4 17.6V29.7C191.4 32.6 190.7 34.7 189.3 36.1C187.9 37.5 185.8 38.1 182.8 38.1C179.8 38.1 177.6 37.4 176.2 36C174.8 34.6 174.1 32.5 174.1 29.6V17.6H178.5V29.7C178.5 31.3 178.8 32.6 179.4 33.4C180 34.2 181.2 34.6 182.8 34.6C184.4 34.6 185.5 34.2 186 33.4C186.6 32.6 186.9 31.4 186.9 29.7V17.6H191.4Z" fill="white"/>
<path d="M205.6 17.6L213.3 37.8H208.6L207 33.3H199.5L197.9 37.8H193.4L201.1 17.6H205.6ZM205.9 30.1L203.2 22.6L200.5 30.1H205.9Z" fill="white"/>
<path d="M215.4 17.6H225.4C227.4 17.6 229 18.1 230.3 19C231.6 19.9 232.2 21.4 232.2 23.3C232.2 24.5 231.9 25.5 231.3 26.4C230.7 27.3 229.9 27.9 228.9 28.3C230.6 28.7 231.6 30.2 231.9 33C231.9 33.1 231.9 33.4 232 33.9C232 34.4 232.1 34.8 232.1 35.1C232.1 35.4 232.2 35.7 232.2 36.1C232.3 36.5 232.3 36.9 232.5 37.1C232.6 37.4 232.7 37.6 232.9 37.7H228.3C228.1 37.4 228 37 228 36.6C227.9 36.1 227.9 35.5 227.8 34.8C227.7 34.1 227.7 33.7 227.7 33.6C227.5 32.2 227.2 31.2 226.6 30.6C226.1 30.1 225.1 29.8 223.6 29.8H219.7V37.7H215.3V17.6H215.4ZM219.8 21.1V26.7H224C225.2 26.7 226.2 26.5 226.9 26.1C227.6 25.7 227.9 24.9 227.9 23.8C227.9 22.7 227.6 22 226.9 21.6C226.2 21.2 225.3 21 224.2 21H219.8V21.1Z" fill="white"/>
<path d="M236 37.8V17.6H244.2C247.3 17.6 249.8 18.5 251.4 20.2C253.1 21.9 254 24.4 254 27.7C254 31 253.1 33.4 251.4 35.2C249.7 36.9 247.3 37.8 244.2 37.8H236ZM240.4 34.2H243.6C247.5 34.2 249.5 32.1 249.5 27.8C249.5 25.7 249 24.2 248 23.1C247 22 245.6 21.4 243.6 21.4H240.4V34.2Z" fill="white"/>
<path fill-rule="evenodd" clip-rule="evenodd" d="M21.7 50.3C10.6 49.3 0.9 29.3 0 12.4C7.9 11.2 15.8 6.3 21.7 0C27.3 6.2 35.5 11.2 43.4 12.4C42.5 29.3 32.9 49.3 21.7 50.3Z" fill="#0077FF"/>
<path fill-rule="evenodd" clip-rule="evenodd" d="M14.8 28V26.6L21.3 25.7V23.8L14.8 25.2V23.8L21.3 21.7V20L14.8 22.3V21.1L21.3 18V15.9L14.8 19.7V18.7L21.5 13.7L28.3 18.8V29.5H29.1V31.4H14V29.5H21.2V27.5L14.8 28Z" fill="white"/>
</g>
<defs>
<clipPath id="clip0_60_682">
<rect width="254" height="50.3" fill="white"/>
</clipPath>
</defs>
</svg>
