<svg xmlns="http://www.w3.org/2000/svg" viewBox="0 0 64 64">
  <polygon points="32,2 58,17 58,47 32,62 6,47 6,17" fill="#2255ff"/>
  <polygon points="32,7 53.6,19.5 53.6,44.5 32,57 10.4,44.5 10.4,19.5" fill="#04050f"/>
  <polygon points="32,11 50,21 50,43 32,53 14,43 14,21" fill="#080a20"/>
  <polygon points="32,12 44,19 40,29 32,22 24,29 20,19" fill="white" opacity="0.03"/>
  <g transform="rotate(-10,20,31)">
    <path d="M 12.5,31 A 7.5,5.5 0 0 0 27.5,31 Z" fill="#88ccff"/>
    <ellipse cx="18.5" cy="33" rx="2.6" ry="1.8" fill="white" opacity="0.88"/>
  </g>
  <g transform="rotate(10,44,31)">
    <path d="M 36.5,31 A 7.5,5.5 0 0 0 51.5,31 Z" fill="#88ccff"/>
    <ellipse cx="45.5" cy="33" rx="2.6" ry="1.8" fill="white" opacity="0.88"/>
  </g>
  <path d="M19,44 Q32,52 45,44" fill="none" stroke="#88ccff" stroke-width="1.8" stroke-linecap="round" opacity="0.55"/>
</svg>
