<svg xmlns="http://www.w3.org/2000/svg" viewBox="0 0 64 64">
  <polygon points="32,2 58,17 58,47 32,62 6,47 6,17" fill="#11cc33"/>
  <polygon points="32,7 53.6,19.5 53.6,44.5 32,57 10.4,44.5 10.4,19.5" fill="#060e07"/>
  <polygon points="32,11 50,21 50,43 32,53 14,43 14,21" fill="#0a1a0c"/>
  <polygon points="32,12 44,19 40,29 32,22 24,29 20,19" fill="white" opacity="0.03"/>
  <g transform="rotate(-18,20,32)">
    <path d="M 13,32 A 7,4.5 0 0 0 27,32 Z" fill="#33ff55"/>
    <ellipse cx="19" cy="33.5" rx="2.2" ry="1.3" fill="white" opacity="0.85"/>
  </g>
  <g transform="rotate(18,44,32)">
    <path d="M 37,32 A 7,4.5 0 0 0 51,32 Z" fill="#33ff55"/>
    <ellipse cx="45" cy="33.5" rx="2.2" ry="1.3" fill="white" opacity="0.85"/>
  </g>
</svg>
