<svg xmlns="http://www.w3.org/2000/svg" viewBox="0 0 64 64">
  <polygon points="32,2 58,17 58,47 32,62 6,47 6,17" fill="#ff8811"/>
  <polygon points="32,7 53.6,19.5 53.6,44.5 32,57 10.4,44.5 10.4,19.5" fill="#0e0400"/>
  <polygon points="32,11 50,21 50,43 32,53 14,43 14,21" fill="#1c0900"/>
  <polygon points="32,12 44,19 40,29 32,22 24,29 20,19" fill="white" opacity="0.03"/>
  <path d="M 12,25 L 23,27" stroke="#ffcc22" stroke-width="2.2" stroke-linecap="round" opacity="0.9"/>
  <path d="M 41,27 L 52,25" stroke="#ffcc22" stroke-width="2.2" stroke-linecap="round" opacity="0.9"/>
  <g transform="rotate(-16,20,33)">
    <path d="M 13,33 A 7,3.8 0 0 0 27,33 Z" fill="#ffcc22"/>
    <ellipse cx="19" cy="34.2" rx="2.1" ry="1.2" fill="white" opacity="0.82"/>
  </g>
  <g transform="rotate(16,44,33)">
    <path d="M 37,33 A 7,3.8 0 0 0 51,33 Z" fill="#ffcc22"/>
    <ellipse cx="45" cy="34.2" rx="2.1" ry="1.2" fill="white" opacity="0.82"/>
  </g>
  <path d="M18,47 Q32,42 46,47" fill="none" stroke="#ff8811" stroke-width="2" stroke-linecap="round" opacity="0.85"/>
</svg>
